<?xml version="1.0" encoding="iso-8859-1"?>
<!-- Generator: Adobe Illustrator 19.0.0, SVG Export Plug-In . SVG Version: 6.00 Build 0)  -->
<svg version="1.1" id="Capa_1" xmlns="http://www.w3.org/2000/svg" xmlns:xlink="http://www.w3.org/1999/xlink" x="0px" y="0px"
	 viewBox="0 0 512 512" style="enable-background:new 0 0 512 512;" xml:space="preserve">
<g>
	<g>
		<path d="M511.994,225.877C511.932,217.645,505.199,211,497,211h-15c0-49.626-40.374-90-90-90H271V45c0-24.813-20.187-45-45-45h-60
			c-24.813,0-45,20.187-45,45s20.187,45,45,45h15v31h-76C47.103,121,0,168.103,0,226v150c0,24.813,20.187,45,45,45h76v76
			c0,8.284,6.716,15,15,15h90c8.284,0,15-6.716,15-15v-76h76c7.979,0,171.662,0,180,0c3.861,0,7.758-1.545,10.606-4.393
			c2.679-2.679,4.396-6.484,4.394-10.612V226C512,225.958,511.994,225.918,511.994,225.877z M392,151c33.084,0,60,26.916,60,60H332
			C332,177.916,358.916,151,392,151z M332,241h128.787l-64.393,64.393L377,324.787l-45-45V241z M166,60c-8.271,0-15-6.729-15-15
			s6.729-15,15-15h60c8.271,0,15,6.729,15,15v151c0,8.271-6.729,15-15,15s-15-6.729-15-15V75c0-8.284-6.716-15-15-15H166z M211,482
			h-60v-61h60V482z M302,211c0,10.231,0,170.431,0,180c-9.539,0-245.903,0-257,0c-8.271,0-15-6.729-15-15V226
			c0-41.355,33.645-75,75-75h76v45c0,24.813,20.187,45,45,45s45-20.187,45-45v-45h53.98C310.7,166.935,302,187.969,302,211z
			 M332,391v-68.787l34.394,34.394c5.857,5.857,15.355,5.858,21.213,0L407,337.213L460.787,391H332z M482,369.787L428.213,316
			L482,262.213V369.787z"/>
	</g>
</g>
<g>
</g>
<g>
</g>
<g>
</g>
<g>
</g>
<g>
</g>
<g>
</g>
<g>
</g>
<g>
</g>
<g>
</g>
<g>
</g>
<g>
</g>
<g>
</g>
<g>
</g>
<g>
</g>
<g>
</g>
</svg>
