<?xml version="1.0" encoding="iso-8859-1"?>
<!-- Generator: Adobe Illustrator 19.0.0, SVG Export Plug-In . SVG Version: 6.00 Build 0)  -->
<svg version="1.1" id="Capa_1" xmlns="http://www.w3.org/2000/svg" xmlns:xlink="http://www.w3.org/1999/xlink" x="0px" y="0px"
	 viewBox="0 0 512 512" style="enable-background:new 0 0 512 512;" xml:space="preserve">
<g>
	<g>
		<path d="M321.53,150.146c14.6-16.328,23.794-38.045,24.435-61.836c0.008-0.271,0.008-0.542,0-0.812
			C344.629,38.433,305.111,0,256,0c-49.626,0-90,40.374-90,90c0,22.472,8.18,43.68,23.124,60.231C134.42,153.785,91,199.413,91,255
			v60c0,8.284,6.716,15,15,15h300c8.284,0,15-6.716,15-15v-60C421,198.958,376.867,153.031,321.53,150.146z M256,30
			c32.605,0,58.867,25.405,59.964,57.91c-1.089,33.132-25.837,60.288-56.539,61.985C221.489,150.988,196,122.084,196,90
			C196,56.916,222.916,30,256,30z M391,300h-30v-45c0-8.284-6.716-15-15-15s-15,6.716-15,15v45H181v-45c0-8.284-6.716-15-15-15
			s-15,6.716-15,15v45h-30v-45c0-41.355,33.645-75,75-75h120c41.355,0,75,33.645,75,75V300z"/>
	</g>
</g>
<g>
	<g>
		<path d="M437,362H75c-41.355,0-75,33.645-75,75c0,41.355,33.645,75,75,75h362c41.355,0,75-33.645,75-75
			C512,395.645,478.355,362,437,362z M437,482H75c-24.813,0-45-20.187-45-45s20.187-45,45-45h362c24.813,0,45,20.187,45,45
			S461.813,482,437,482z"/>
	</g>
</g>
<g>
	<g>
		<path d="M135,422h-30c-8.284,0-15,6.716-15,15s6.716,15,15,15h30c8.284,0,15-6.716,15-15S143.284,422,135,422z"/>
	</g>
</g>
<g>
	<g>
		<path d="M226,422h-30c-8.284,0-15,6.716-15,15s6.716,15,15,15h30c8.284,0,15-6.716,15-15S234.284,422,226,422z"/>
	</g>
</g>
<g>
	<g>
		<path d="M316,422h-30c-8.284,0-15,6.716-15,15s6.716,15,15,15h30c8.284,0,15-6.716,15-15S324.284,422,316,422z"/>
	</g>
</g>
<g>
	<g>
		<path d="M407,422h-30c-8.284,0-15,6.716-15,15s6.716,15,15,15h30c8.284,0,15-6.716,15-15S415.284,422,407,422z"/>
	</g>
</g>
<g>
</g>
<g>
</g>
<g>
</g>
<g>
</g>
<g>
</g>
<g>
</g>
<g>
</g>
<g>
</g>
<g>
</g>
<g>
</g>
<g>
</g>
<g>
</g>
<g>
</g>
<g>
</g>
<g>
</g>
</svg>
